<svg xmlns="http://www.w3.org/2000/svg" version="1.1" xmlns:xlink="http://www.w3.org/1999/xlink" xmlns:svgjs="http://svgjs.dev/svgjs" width="512" height="512"><svg width="512" height="512" viewBox="0 0 512 512" fill="none" xmlns="http://www.w3.org/2000/svg">
<path d="M0 256C0 158.687 20.4522 87.04 53.76 53.76C87.0678 20.48 158.753 0 256 0C353.355 0 424.96 20.4172 458.24 53.76C491.52 87.1028 512 158.795 512 256C512 353.323 491.556 424.96 458.24 458.24C424.924 491.52 353.237 512 256 512C158.796 512 87.1038 491.52 53.76 458.24C20.4162 424.96 0 353.356 0 256Z" fill="black"></path>
<path d="M255.909 391C270.818 391 282.909 378.912 282.909 364V242.5H298.685C303.418 242.503 309.218 242.506 313.964 241.912L314.056 241.901L314.06 241.9C317.481 241.473 333.027 239.53 340.43 224.265C347.853 208.965 339.705 195.463 337.939 192.537L337.938 192.535L337.873 192.426C335.393 188.31 331.788 183.717 328.817 179.93L328.142 179.069C320.185 168.922 309.874 155.848 299.6 145.291C294.476 140.023 288.609 134.59 282.374 130.301C276.834 126.488 267.379 121 255.75 121C244.121 121 234.666 126.488 229.125 130.301C222.891 134.59 217.024 140.023 211.899 145.291C201.627 155.848 191.314 168.922 183.359 179.069L182.718 179.886C179.739 183.681 176.117 188.294 173.627 192.426L173.561 192.535C171.797 195.456 163.645 208.961 171.069 224.265C178.475 239.531 194.02 241.473 197.441 241.9L197.444 241.901L197.534 241.912C202.282 242.506 208.082 242.503 212.814 242.5H228.909V364C228.909 378.912 240.997 391 255.909 391Z" fill="white"></path>
</svg><style>@media (prefers-color-scheme: light) { :root { filter: none; } }
@media (prefers-color-scheme: dark) { :root { filter: none; } }
</style></svg>